<svg width="12" height="12" viewBox="0 0 12 12" fill="none" xmlns="http://www.w3.org/2000/svg">
<g clip-path="url(#clip0_293_405)">
<path d="M6 6H5.625C5.625 6.16141 5.72829 6.30471 5.88141 6.35576L6 6ZM6.375 3.5C6.375 3.29289 6.20711 3.125 6 3.125C5.79289 3.125 5.625 3.29289 5.625 3.5H6.375ZM7.38141 6.85576C7.57789 6.92125 7.79026 6.81506 7.85576 6.61859C7.92125 6.42211 7.81506 6.20974 7.61859 6.14424L7.38141 6.85576ZM6.375 6V3.5H5.625V6H6.375ZM5.88141 6.35576L7.38141 6.85576L7.61859 6.14424L6.11859 5.64424L5.88141 6.35576ZM10.625 6C10.625 8.55432 8.55432 10.625 6 10.625V11.375C8.96853 11.375 11.375 8.96853 11.375 6H10.625ZM6 10.625C3.44568 10.625 1.375 8.55432 1.375 6H0.625C0.625 8.96853 3.03147 11.375 6 11.375V10.625ZM1.375 6C1.375 3.44568 3.44568 1.375 6 1.375V0.625C3.03147 0.625 0.625 3.03147 0.625 6H1.375ZM6 1.375C8.55432 1.375 10.625 3.44568 10.625 6H11.375C11.375 3.03147 8.96853 0.625 6 0.625V1.375Z" fill="#7C747E"/>
</g>
<defs>
<clipPath id="clip0_293_405">
<rect width="12" height="12" fill="white"/>
</clipPath>
</defs>
</svg>
