<svg width="12" height="12" viewBox="0 0 12 12" fill="none" xmlns="http://www.w3.org/2000/svg">
<path d="M7 4.5C7 5.05228 6.55228 5.5 6 5.5C5.44772 5.5 5 5.05228 5 4.5C5 3.94772 5.44772 3.5 6 3.5C6.55228 3.5 7 3.94772 7 4.5Z" stroke="#7C747E" stroke-width="0.75"/>
<path d="M9 4.5C9 6.15685 7 8.5 6 8.5C5 8.5 3 6.15685 3 4.5C3 2.84315 4.34315 1.5 6 1.5C7.65685 1.5 9 2.84315 9 4.5Z" stroke="#7C747E" stroke-width="0.75"/>
<path d="M7.49999 7.5H8.06324C8.6568 7.5 9.21969 7.76365 9.59968 8.21963L10.1332 8.85982C10.6759 9.51114 10.2128 10.5 9.36494 10.5H2.63503C1.78719 10.5 1.32404 9.51114 1.86681 8.85982L2.40029 8.21963C2.78028 7.76365 3.34318 7.5 3.93674 7.5H4.49999" stroke="#7C747E" stroke-width="0.75" stroke-linejoin="round"/>
</svg>
