<svg width="140" height="140" viewBox="0 0 140 140" fill="none" xmlns="http://www.w3.org/2000/svg">
<g style="mix-blend-mode:multiply" opacity="0.08" filter="url(#filter0_f_101_613)">
<rect x="30" y="30" width="80" height="80" rx="16" fill="black"/>
</g>
<mask id="mask0_101_613" style="mask-type:alpha" maskUnits="userSpaceOnUse" x="30" y="30" width="80" height="80">
<rect x="30" y="30" width="80" height="80" rx="16" fill="#D9D9D9"/>
</mask>
<g mask="url(#mask0_101_613)">
<rect x="30" y="30" width="80" height="80" rx="16" fill="#FFFBFF"/>
<path fill-rule="evenodd" clip-rule="evenodd" d="M34.6863 34.6863C30 39.3726 30 46.9151 30 62V78C30 93.0849 30 100.627 34.6863 105.314C39.3726 110 46.9151 110 62 110H78C93.0849 110 100.627 110 105.314 105.314C110 100.627 110 93.0849 110 78V62C110 46.9151 110 39.3726 105.314 34.6863C100.627 30 93.0849 30 78 30H62C46.9151 30 39.3726 30 34.6863 34.6863ZM69.0275 47.0298C70.1169 47.0298 71.0001 47.9129 71.0001 49.0024V60.5429C71.1949 60.1991 71.3867 59.8759 71.5696 59.5903C71.7932 59.2411 72.075 58.8329 72.3849 58.5227L72.3855 58.5221C73.3333 57.5743 74.6187 57.0419 75.9591 57.0419C77.2994 57.0419 78.5849 57.5743 79.5326 58.5221C80.4804 59.4698 81.0128 60.7553 81.0128 62.0956C81.0128 63.436 80.4804 64.7214 79.5326 65.6692L79.532 65.6698C79.2218 65.9797 78.8137 66.2615 78.4644 66.4851C78.1788 66.668 77.8555 66.8599 77.5117 67.0547H89.0524C90.1419 67.0547 91.025 67.9379 91.025 69.0273C91.025 70.1168 90.1419 70.9999 89.0524 70.9999H77.5118C77.8556 71.1947 78.1788 71.3866 78.4644 71.5694C78.8137 71.793 79.2218 72.0748 79.532 72.3848C80.3027 73.1548 80.3032 74.4038 79.5332 75.1744C78.7632 75.9451 77.5142 75.9456 76.7435 75.1756C76.7449 75.177 76.7438 75.1761 76.7397 75.1728L76.7394 75.1726C76.7159 75.1536 76.6018 75.0615 76.3372 74.892C76.056 74.712 75.6895 74.4977 75.2542 74.2577C74.6357 73.9167 73.9163 73.5447 73.1737 73.1736C73.5449 73.9162 73.9169 74.6355 74.2579 75.2541C74.4979 75.6893 74.7122 76.0558 74.8922 76.337C75.0616 76.6017 75.1537 76.7157 75.1727 76.7392C75.1748 76.7418 75.1761 76.7433 75.1763 76.7438C75.1765 76.7441 75.1764 76.7439 75.1758 76.7434C75.9458 77.514 75.9453 78.763 75.1746 79.533C74.4039 80.3031 73.155 80.3025 72.3849 79.5319C72.075 79.2217 71.7932 78.8135 71.5696 78.4642C71.3867 78.1786 71.1949 77.8555 71.0001 77.5117V89.0523C71.0001 90.1417 70.1169 91.0249 69.0275 91.0249C67.9381 91.0249 67.0549 90.1417 67.0549 89.0523V77.5114C66.8601 77.8552 66.6682 78.1785 66.4853 78.4641C66.2617 78.8134 65.9799 79.2216 65.6699 79.5319L65.6694 79.5325C65.2001 80.0017 64.643 80.374 64.0298 80.628C63.4166 80.882 62.7595 81.0127 62.0958 81.0127C61.4321 81.0127 60.775 80.882 60.1618 80.628C59.5487 80.374 58.9915 80.0017 58.5223 79.5325C58.053 79.0632 57.6807 78.5061 57.4267 77.8929C57.1728 77.2797 57.042 76.6226 57.042 75.9589C57.042 75.2952 57.1728 74.6381 57.4267 74.0249C57.6807 73.4118 58.053 72.8546 58.5223 72.3853L58.5228 72.3848C58.833 72.0749 59.2411 71.7931 59.5904 71.5695C59.8759 71.3866 60.1991 71.1947 60.5428 70.9999H49.0026C47.9131 70.9999 47.03 70.1168 47.03 69.0273C47.03 67.9379 47.9131 67.0547 49.0026 67.0547H60.5432C60.1994 66.8599 59.8761 66.668 59.5905 66.4851C59.2412 66.2615 58.833 65.9797 58.5228 65.6698C57.7522 64.8997 57.7516 63.6508 58.5217 62.8801C59.2917 62.1094 60.5407 62.1089 61.3114 62.8789C61.3099 62.8775 61.3111 62.8785 61.3155 62.882C61.339 62.901 61.453 62.9931 61.7177 63.1625C61.9989 63.3426 62.3654 63.5568 62.8007 63.7968C63.4193 64.1379 64.1389 64.51 64.8817 64.8812C64.5104 64.1386 64.1383 63.4192 63.7972 62.8006C63.5572 62.3653 63.3429 61.9988 63.1628 61.7176C62.9932 61.4528 62.9011 61.3388 62.8821 61.3153L62.882 61.3151C62.8786 61.311 62.8777 61.3098 62.8791 61.3112C62.1091 60.5405 62.1096 59.2915 62.8803 58.5215C63.6509 57.7515 64.8999 57.752 65.6699 58.5227C65.9799 58.8328 66.2616 59.241 66.4853 59.5902C66.6681 59.8758 66.86 60.199 67.0549 60.5428V49.0024C67.0549 47.9129 67.9381 47.0298 69.0275 47.0298ZM64.8811 73.1732C64.51 73.9159 64.1379 74.6354 63.7969 75.254C63.557 75.6893 63.3427 76.0558 63.1627 76.337C62.9933 76.6016 62.9012 76.7157 62.8822 76.7392C62.8787 76.7436 62.8776 76.7448 62.8791 76.7434C62.7763 76.846 62.6543 76.9275 62.52 76.9831C62.3855 77.0388 62.2414 77.0675 62.0958 77.0675C61.9502 77.0675 61.8061 77.0388 61.6716 76.9831C61.5371 76.9274 61.4149 76.8457 61.3119 76.7428C61.209 76.6398 61.1273 76.5176 61.0716 76.3831C61.0159 76.2486 60.9872 76.1045 60.9872 75.9589C60.9872 75.8133 61.0159 75.6692 61.0716 75.5347C61.1272 75.4006 61.2085 75.2788 61.3109 75.1761C61.3106 75.1764 61.3108 75.1763 61.3114 75.1758L61.3155 75.1725L61.3155 75.1725C61.3391 75.1535 61.4532 75.0613 61.7178 74.8919C61.999 74.7118 62.3655 74.4975 62.8008 74.2575C63.4193 73.9165 64.1386 73.5444 64.8811 73.1732ZM61.3114 75.1756C61.3112 75.1758 61.311 75.176 61.3109 75.1761C61.3113 75.1757 61.3116 75.1754 61.3119 75.175L59.9177 73.7808L61.3114 75.1756ZM73.1737 64.881C73.9163 64.5098 74.6357 64.1378 75.2542 63.7968C75.6895 63.5568 76.056 63.3426 76.3372 63.1625C76.6018 62.9931 76.7159 62.901 76.7394 62.882L76.7429 62.8791C76.7443 62.8781 76.7444 62.878 76.7435 62.8789C76.9511 62.6711 77.0676 62.3894 77.0676 62.0956C77.0676 61.8016 76.9508 61.5197 76.7429 61.3118C76.535 61.1039 76.2531 60.9871 75.9591 60.9871C75.6655 60.9871 75.384 61.1035 75.1762 61.3108C75.1769 61.3101 75.1758 61.3115 75.1727 61.3153C75.1537 61.3388 75.0616 61.4529 74.8922 61.7175C74.7122 61.9987 74.4979 62.3652 74.2579 62.8005C73.9169 63.419 73.5449 64.1384 73.1737 64.881Z" fill="black"/>
<rect x="21.5" y="30.5" width="96" height="79" fill="white"/>
<rect x="21.5" y="30.5" width="96" height="79" stroke="white"/>
<g filter="url(#filter1_d_101_613)">
<mask id="path-6-inside-1_101_613" fill="white">
<path fill-rule="evenodd" clip-rule="evenodd" d="M34.1863 34.6863C29.5 39.3726 29.5 46.9151 29.5 62V78C29.5 93.0849 29.5 100.627 34.1863 105.314C38.8726 110 46.4151 110 61.5 110H77.5C92.5849 110 100.127 110 104.814 105.314C109.5 100.627 109.5 93.0849 109.5 78V62C109.5 46.9151 109.5 39.3726 104.814 34.6863C100.127 30 92.5849 30 77.5 30H61.5C46.4151 30 38.8726 30 34.1863 34.6863ZM68.5 47C69.6046 47 70.5 47.8954 70.5 49V60.4135C70.6756 60.1063 70.8484 59.8172 71.0139 59.5587C71.2374 59.2096 71.5202 58.7996 71.8322 58.4874L71.8328 58.4868C72.785 57.5346 74.0764 56.9997 75.423 56.9997C76.7696 56.9997 78.0611 57.5346 79.0132 58.4868C79.9654 59.439 80.5004 60.7304 80.5004 62.077C80.5004 63.4236 79.9654 64.715 79.0132 65.6672L79.0126 65.6678C78.7004 65.9798 78.2904 66.2627 77.9413 66.4861C77.6829 66.6516 77.3937 66.8244 77.0866 67H88.5C89.6046 67 90.5 67.8954 90.5 69C90.5 70.1046 89.6046 71 88.5 71H77.0866C77.3937 71.1756 77.6829 71.3484 77.9413 71.5139C78.2904 71.7373 78.7004 72.0202 79.0126 72.3322C79.794 73.1129 79.7945 74.3793 79.0138 75.1606C78.2331 75.942 76.9668 75.9425 76.1854 75.1618C76.1875 75.1639 76.1861 75.1628 76.1807 75.1585L76.1806 75.1584L76.1806 75.1583C76.1551 75.1379 76.0419 75.0473 75.7845 74.8826C75.5045 74.7033 75.1391 74.4896 74.7046 74.2501C74.1096 73.9221 73.4209 73.5652 72.708 73.208C73.0652 73.9209 73.4221 74.6096 73.7501 75.2046C73.9896 75.6391 74.2033 76.0045 74.3826 76.2845C74.5474 76.5419 74.638 76.655 74.6584 76.6805L74.6585 76.6807C74.6628 76.6861 74.6639 76.6874 74.6618 76.6854C75.4426 77.4667 75.442 78.7331 74.6606 79.5138C73.8793 80.2945 72.6129 80.294 71.8322 79.5126C71.5202 79.2004 71.2374 78.7904 71.0139 78.4413C70.8484 78.1828 70.6756 77.8937 70.5 77.5865V89C70.5 90.1046 69.6046 91 68.5 91C67.3954 91 66.5 90.1046 66.5 89V77.5865C66.3244 77.8936 66.1517 78.1827 65.9862 78.4412C65.7627 78.7903 65.4798 79.2004 65.1678 79.5126L65.1672 79.5132C64.6958 79.9847 64.136 80.3587 63.52 80.6138C62.904 80.869 62.2438 81.0003 61.577 81.0003C60.9103 81.0003 60.25 80.869 59.634 80.6138C59.018 80.3587 58.4583 79.9847 57.9868 79.5132C57.5153 79.0417 57.1413 78.482 56.8862 77.866C56.631 77.25 56.4997 76.5898 56.4997 75.923C56.4997 75.2562 56.631 74.596 56.8862 73.98C57.1413 73.364 57.5153 72.8043 57.9868 72.3328L57.9874 72.3322C58.2996 72.0203 58.7095 71.7374 59.0586 71.5139C59.3171 71.3484 59.6061 71.1756 59.9133 71H48.5C47.3954 71 46.5 70.1046 46.5 69C46.5 67.8954 47.3954 67 48.5 67H59.9135C59.6063 66.8244 59.3172 66.6516 59.0587 66.4861C58.7096 66.2627 58.2996 65.9798 57.9874 65.6678C57.206 64.8871 57.2055 63.6208 57.9862 62.8394C58.7669 62.058 60.0333 62.0575 60.8146 62.8382C60.8126 62.8361 60.814 62.8373 60.8195 62.8417L60.8195 62.8417C60.8451 62.8622 60.9583 62.9528 61.2155 63.1174C61.4956 63.2967 61.861 63.5104 62.2954 63.7499C62.8906 64.078 63.5795 64.435 64.2926 64.7923C63.9352 64.0793 63.5783 63.3906 63.2502 62.7955C63.0106 62.3611 62.7969 61.9957 62.6176 61.7156C62.4527 61.4581 62.3621 61.3449 62.3417 61.3195L62.3416 61.3194C62.3373 61.314 62.3362 61.3126 62.3382 61.3146C61.5575 60.5333 61.558 59.2669 62.3394 58.4862C63.1208 57.7055 64.3871 57.706 65.1678 58.4874C65.4798 58.7996 65.7626 59.2095 65.9862 59.5586C66.1516 59.817 66.3244 60.1061 66.5 60.4132V49C66.5 47.8954 67.3954 47 68.5 47ZM64.2921 73.2076C63.9348 73.9206 63.5779 74.6094 63.2499 75.2045C63.0104 75.639 62.7967 76.0045 62.6174 76.2845C62.4527 76.5419 62.3621 76.655 62.3417 76.6805C62.3373 76.686 62.3361 76.6875 62.3382 76.6854C62.2383 76.7851 62.1197 76.8643 61.9893 76.9183C61.8586 76.9725 61.7185 77.0003 61.577 77.0003C61.4355 77.0003 61.2954 76.9725 61.1647 76.9183C61.034 76.8642 60.9153 76.7848 60.8152 76.6848C60.7152 76.5847 60.6358 76.466 60.5817 76.3353C60.5276 76.2046 60.4997 76.0645 60.4997 75.923C60.4997 75.7815 60.5276 75.6414 60.5817 75.5107C60.6357 75.3804 60.7147 75.262 60.8143 75.1621C60.8128 75.1637 60.8143 75.1625 60.8195 75.1583C60.845 75.1379 60.9581 75.0473 61.2156 74.8825C61.4957 74.7031 61.8611 74.4894 62.2955 74.2499C62.8905 73.9218 63.5792 73.5649 64.2921 73.2076ZM72.708 64.792C73.4209 64.4348 74.1096 64.0779 74.7046 63.7499C75.1391 63.5104 75.5045 63.2967 75.7845 63.1174C76.0419 62.9526 76.1551 62.8621 76.1806 62.8417L76.1806 62.8416C76.1861 62.8373 76.1875 62.8361 76.1854 62.8382C76.3871 62.6362 76.5004 62.3624 76.5004 62.077C76.5004 61.7913 76.3868 61.5173 76.1848 61.3152C75.9828 61.1132 75.7087 60.9997 75.423 60.9997C75.1379 60.9997 74.8644 61.1127 74.6625 61.314C74.6636 61.313 74.6622 61.3147 74.6584 61.3195C74.6379 61.345 74.5474 61.4581 74.3826 61.7155C74.2033 61.9955 73.9896 62.3609 73.7501 62.7954C73.4221 63.3904 73.0652 64.0791 72.708 64.792Z"/>
</mask>
<path fill-rule="evenodd" clip-rule="evenodd" d="M34.1863 34.6863C29.5 39.3726 29.5 46.9151 29.5 62V78C29.5 93.0849 29.5 100.627 34.1863 105.314C38.8726 110 46.4151 110 61.5 110H77.5C92.5849 110 100.127 110 104.814 105.314C109.5 100.627 109.5 93.0849 109.5 78V62C109.5 46.9151 109.5 39.3726 104.814 34.6863C100.127 30 92.5849 30 77.5 30H61.5C46.4151 30 38.8726 30 34.1863 34.6863ZM68.5 47C69.6046 47 70.5 47.8954 70.5 49V60.4135C70.6756 60.1063 70.8484 59.8172 71.0139 59.5587C71.2374 59.2096 71.5202 58.7996 71.8322 58.4874L71.8328 58.4868C72.785 57.5346 74.0764 56.9997 75.423 56.9997C76.7696 56.9997 78.0611 57.5346 79.0132 58.4868C79.9654 59.439 80.5004 60.7304 80.5004 62.077C80.5004 63.4236 79.9654 64.715 79.0132 65.6672L79.0126 65.6678C78.7004 65.9798 78.2904 66.2627 77.9413 66.4861C77.6829 66.6516 77.3937 66.8244 77.0866 67H88.5C89.6046 67 90.5 67.8954 90.5 69C90.5 70.1046 89.6046 71 88.5 71H77.0866C77.3937 71.1756 77.6829 71.3484 77.9413 71.5139C78.2904 71.7373 78.7004 72.0202 79.0126 72.3322C79.794 73.1129 79.7945 74.3793 79.0138 75.1606C78.2331 75.942 76.9668 75.9425 76.1854 75.1618C76.1875 75.1639 76.1861 75.1628 76.1807 75.1585L76.1806 75.1584L76.1806 75.1583C76.1551 75.1379 76.0419 75.0473 75.7845 74.8826C75.5045 74.7033 75.1391 74.4896 74.7046 74.2501C74.1096 73.9221 73.4209 73.5652 72.708 73.208C73.0652 73.9209 73.4221 74.6096 73.7501 75.2046C73.9896 75.6391 74.2033 76.0045 74.3826 76.2845C74.5474 76.5419 74.638 76.655 74.6584 76.6805L74.6585 76.6807C74.6628 76.6861 74.6639 76.6874 74.6618 76.6854C75.4426 77.4667 75.442 78.7331 74.6606 79.5138C73.8793 80.2945 72.6129 80.294 71.8322 79.5126C71.5202 79.2004 71.2374 78.7904 71.0139 78.4413C70.8484 78.1828 70.6756 77.8937 70.5 77.5865V89C70.5 90.1046 69.6046 91 68.5 91C67.3954 91 66.5 90.1046 66.5 89V77.5865C66.3244 77.8936 66.1517 78.1827 65.9862 78.4412C65.7627 78.7903 65.4798 79.2004 65.1678 79.5126L65.1672 79.5132C64.6958 79.9847 64.136 80.3587 63.52 80.6138C62.904 80.869 62.2438 81.0003 61.577 81.0003C60.9103 81.0003 60.25 80.869 59.634 80.6138C59.018 80.3587 58.4583 79.9847 57.9868 79.5132C57.5153 79.0417 57.1413 78.482 56.8862 77.866C56.631 77.25 56.4997 76.5898 56.4997 75.923C56.4997 75.2562 56.631 74.596 56.8862 73.98C57.1413 73.364 57.5153 72.8043 57.9868 72.3328L57.9874 72.3322C58.2996 72.0203 58.7095 71.7374 59.0586 71.5139C59.3171 71.3484 59.6061 71.1756 59.9133 71H48.5C47.3954 71 46.5 70.1046 46.5 69C46.5 67.8954 47.3954 67 48.5 67H59.9135C59.6063 66.8244 59.3172 66.6516 59.0587 66.4861C58.7096 66.2627 58.2996 65.9798 57.9874 65.6678C57.206 64.8871 57.2055 63.6208 57.9862 62.8394C58.7669 62.058 60.0333 62.0575 60.8146 62.8382C60.8126 62.8361 60.814 62.8373 60.8195 62.8417L60.8195 62.8417C60.8451 62.8622 60.9583 62.9528 61.2155 63.1174C61.4956 63.2967 61.861 63.5104 62.2954 63.7499C62.8906 64.078 63.5795 64.435 64.2926 64.7923C63.9352 64.0793 63.5783 63.3906 63.2502 62.7955C63.0106 62.3611 62.7969 61.9957 62.6176 61.7156C62.4527 61.4581 62.3621 61.3449 62.3417 61.3195L62.3416 61.3194C62.3373 61.314 62.3362 61.3126 62.3382 61.3146C61.5575 60.5333 61.558 59.2669 62.3394 58.4862C63.1208 57.7055 64.3871 57.706 65.1678 58.4874C65.4798 58.7996 65.7626 59.2095 65.9862 59.5586C66.1516 59.817 66.3244 60.1061 66.5 60.4132V49C66.5 47.8954 67.3954 47 68.5 47ZM64.2921 73.2076C63.9348 73.9206 63.5779 74.6094 63.2499 75.2045C63.0104 75.639 62.7967 76.0045 62.6174 76.2845C62.4527 76.5419 62.3621 76.655 62.3417 76.6805C62.3373 76.686 62.3361 76.6875 62.3382 76.6854C62.2383 76.7851 62.1197 76.8643 61.9893 76.9183C61.8586 76.9725 61.7185 77.0003 61.577 77.0003C61.4355 77.0003 61.2954 76.9725 61.1647 76.9183C61.034 76.8642 60.9153 76.7848 60.8152 76.6848C60.7152 76.5847 60.6358 76.466 60.5817 76.3353C60.5276 76.2046 60.4997 76.0645 60.4997 75.923C60.4997 75.7815 60.5276 75.6414 60.5817 75.5107C60.6357 75.3804 60.7147 75.262 60.8143 75.1621C60.8128 75.1637 60.8143 75.1625 60.8195 75.1583C60.845 75.1379 60.9581 75.0473 61.2156 74.8825C61.4957 74.7031 61.8611 74.4894 62.2955 74.2499C62.8905 73.9218 63.5792 73.5649 64.2921 73.2076ZM72.708 64.792C73.4209 64.4348 74.1096 64.0779 74.7046 63.7499C75.1391 63.5104 75.5045 63.2967 75.7845 63.1174C76.0419 62.9526 76.1551 62.8621 76.1806 62.8417L76.1806 62.8416C76.1861 62.8373 76.1875 62.8361 76.1854 62.8382C76.3871 62.6362 76.5004 62.3624 76.5004 62.077C76.5004 61.7913 76.3868 61.5173 76.1848 61.3152C75.9828 61.1132 75.7087 60.9997 75.423 60.9997C75.1379 60.9997 74.8644 61.1127 74.6625 61.314C74.6636 61.313 74.6622 61.3147 74.6584 61.3195C74.6379 61.345 74.5474 61.4581 74.3826 61.7155C74.2033 61.9955 73.9896 62.3609 73.7501 62.7954C73.4221 63.3904 73.0652 64.0791 72.708 64.792Z" fill="url(#paint0_linear_101_613)"/>
<path d="M34.1863 105.314L34.8934 104.607H34.8934L34.1863 105.314ZM104.814 105.314L104.107 104.607L104.814 105.314ZM104.814 34.6863L104.107 35.3934V35.3934L104.814 34.6863ZM70.5 60.4135H69.5V64.1778L71.3682 60.9098L70.5 60.4135ZM71.0139 59.5587L71.856 60.0979L71.8561 60.0979L71.0139 59.5587ZM71.8322 58.4874L72.5396 59.1942L72.5405 59.1933L71.8322 58.4874ZM71.8328 58.4868L71.1257 57.7797L71.1246 57.7808L71.8328 58.4868ZM79.0132 58.4868L79.7203 57.7797L79.7203 57.7797L79.0132 58.4868ZM79.0126 65.6678L79.7195 66.3752L79.7198 66.3749L79.0126 65.6678ZM77.9413 66.4861L78.4805 67.3283V67.3283L77.9413 66.4861ZM77.0866 67L76.5903 66.1318L73.3222 68H77.0866V67ZM77.0866 71V70H73.3223L76.5903 71.8682L77.0866 71ZM77.9413 71.5139L77.4021 72.356L77.4021 72.356L77.9413 71.5139ZM79.0126 72.3322L79.7195 71.6248L79.7195 71.6248L79.0126 72.3322ZM79.0138 75.1606L78.3064 74.4538V74.4538L79.0138 75.1606ZM76.1854 75.1618L76.8918 74.454L75.4786 75.8692L76.1854 75.1618ZM76.1807 75.1585L76.8057 74.3779L76.7843 74.3607L76.7619 74.3447L76.1807 75.1585ZM76.1806 75.1584L75.5449 75.9303L75.5714 75.9522L75.5994 75.9721L76.1806 75.1584ZM76.1806 75.1583L76.8163 74.3863L76.8055 74.3777L76.1806 75.1583ZM75.7845 74.8826L75.2453 75.7247L75.2454 75.7248L75.7845 74.8826ZM74.7046 74.2501L75.1874 73.3744L74.7046 74.2501ZM72.708 73.208L73.156 72.3139L70.4662 70.9661L71.8139 73.6559L72.708 73.208ZM73.7501 75.2046L72.8744 75.6874L73.7501 75.2046ZM74.3826 76.2845L75.2248 75.7453L75.2248 75.7453L74.3826 76.2845ZM74.6584 76.6805L73.8777 77.3055L73.879 77.3071L74.6584 76.6805ZM74.6585 76.6807L75.4392 76.0558L75.4379 76.0542L74.6585 76.6807ZM74.6618 76.6854L75.3692 75.9786L73.9541 77.3918L74.6618 76.6854ZM74.6606 79.5138L73.9538 78.8064H73.9538L74.6606 79.5138ZM71.8322 79.5126L71.1248 80.2194L71.1248 80.2194L71.8322 79.5126ZM71.0139 78.4413L71.8561 77.9021L71.856 77.9021L71.0139 78.4413ZM70.5 77.5865L71.3682 77.0902L69.5 73.8222V77.5865H70.5ZM66.5 77.5865H67.5V73.8219L65.6318 77.0902L66.5 77.5865ZM65.9862 78.4412L65.144 77.902L65.144 77.902L65.9862 78.4412ZM65.1678 79.5126L65.8749 80.2197L65.8752 80.2194L65.1678 79.5126ZM63.52 80.6138L63.9027 81.5377L63.9027 81.5377L63.52 80.6138ZM59.634 80.6138L60.0167 79.69H60.0167L59.634 80.6138ZM57.9868 79.5132L57.2797 80.2203L57.2797 80.2203L57.9868 79.5132ZM56.8862 77.866L55.9623 78.2487L56.8862 77.866ZM56.8862 73.98L57.8101 74.3627L56.8862 73.98ZM57.9868 72.3328L57.2808 71.6245L57.2797 71.6257L57.9868 72.3328ZM57.9874 72.3322L58.6934 73.0405L58.6942 73.0396L57.9874 72.3322ZM59.0586 71.5139L58.5194 70.6717H58.5194L59.0586 71.5139ZM59.9133 71L60.4096 71.8681L63.677 70H59.9133V71ZM59.9135 67V68H63.6778L60.4097 66.1318L59.9135 67ZM59.0587 66.4861L59.5979 65.644H59.5979L59.0587 66.4861ZM57.9874 65.6678L58.6942 64.9604H58.6942L57.9874 65.6678ZM57.9862 62.8394L58.6936 63.5462L58.6936 63.5462L57.9862 62.8394ZM60.8146 62.8382L60.1079 63.5456L61.5215 62.1308L60.8146 62.8382ZM60.8195 62.8417L60.1941 63.622L60.2067 63.632L60.2195 63.6417L60.8195 62.8417ZM60.8195 62.8417L61.4445 62.0611L61.4322 62.0512L61.4195 62.0417L60.8195 62.8417ZM61.2155 63.1174L61.7547 62.2753L61.7547 62.2753L61.2155 63.1174ZM62.2954 63.7499L61.8126 64.6257L61.8126 64.6257L62.2954 63.7499ZM64.2926 64.7923L63.8446 65.6864L66.5348 67.0343L65.1866 64.3443L64.2926 64.7923ZM63.2502 62.7955L62.3745 63.2784L62.3745 63.2784L63.2502 62.7955ZM62.6176 61.7156L63.4597 61.1763L63.4597 61.1763L62.6176 61.7156ZM62.3417 61.3195L63.1223 60.6944L63.1156 60.6862L62.3417 61.3195ZM62.3416 61.3194L61.5608 61.9442L61.5677 61.9526L62.3416 61.3194ZM62.3382 61.3146L61.6311 62.0217L63.0456 60.6078L62.3382 61.3146ZM62.3394 58.4862L63.0462 59.1936L63.0462 59.1936L62.3394 58.4862ZM65.1678 58.4874L64.4604 59.1942L64.4604 59.1942L65.1678 58.4874ZM65.9862 59.5586L65.144 60.0978L65.144 60.0978L65.9862 59.5586ZM66.5 60.4132L65.6319 60.9095L67.5 64.1769V60.4132H66.5ZM63.2499 75.2045L62.3741 74.7218V74.7218L63.2499 75.2045ZM64.2921 73.2076L65.1861 73.6555L66.5339 70.9655L63.844 72.3136L64.2921 73.2076ZM62.6174 76.2845L61.7752 75.7454H61.7752L62.6174 76.2845ZM62.3417 76.6805L63.1223 77.3055L63.1223 77.3055L62.3417 76.6805ZM62.3382 76.6854L63.046 77.3918L61.6317 75.9777L62.3382 76.6854ZM61.9893 76.9183L61.6066 75.9944L61.6066 75.9944L61.9893 76.9183ZM61.1647 76.9183L60.7821 77.8422H60.7821L61.1647 76.9183ZM60.8152 76.6848L61.5223 75.9777L61.5223 75.9777L60.8152 76.6848ZM60.5817 76.3353L61.5056 75.9526L61.5056 75.9526L60.5817 76.3353ZM60.5817 75.5107L61.5056 75.8934L61.5056 75.8934L60.5817 75.5107ZM60.8143 75.1621L61.5274 75.8632L60.1064 74.4559L60.8143 75.1621ZM60.8195 75.1583L61.4444 75.939L61.4446 75.9389L60.8195 75.1583ZM61.2156 74.8825L61.7548 75.7246L61.7549 75.7246L61.2156 74.8825ZM62.2955 74.2499L61.8127 73.3742L61.8127 73.3742L62.2955 74.2499ZM74.7046 63.7499L75.1874 64.6257L75.1874 64.6257L74.7046 63.7499ZM72.708 64.792L71.8139 64.3441L70.4662 67.0338L73.1559 65.6861L72.708 64.792ZM75.7845 63.1174L75.2453 62.2753H75.2453L75.7845 63.1174ZM76.1806 62.8417L76.8056 63.6223L76.8132 63.6161L76.8207 63.6099L76.1806 62.8417ZM76.1806 62.8416L75.5556 62.061L75.5479 62.0672L75.5404 62.0734L76.1806 62.8416ZM76.1854 62.8382L75.4777 62.1316L76.8925 63.5453L76.1854 62.8382ZM76.1848 61.3152L75.4777 62.0223L75.4777 62.0223L76.1848 61.3152ZM74.6625 61.314L73.9565 60.6058L75.3467 62.0432L74.6625 61.314ZM74.6584 61.3195L73.8779 60.6943L73.8777 60.6945L74.6584 61.3195ZM74.3826 61.7155L75.2248 62.2547L75.2248 62.2547L74.3826 61.7155ZM73.7501 62.7954L72.8744 62.3126L73.7501 62.7954ZM30.5 62C30.5 54.4293 30.5021 48.8518 31.0769 44.5769C31.6477 40.3308 32.767 37.5198 34.8934 35.3934L33.4792 33.9792C30.9193 36.5391 29.6954 39.8425 29.0947 44.3104C28.4979 48.7495 28.5 54.4858 28.5 62H30.5ZM30.5 78V62H28.5V78H30.5ZM34.8934 104.607C32.767 102.48 31.6477 99.6692 31.0769 95.4231C30.5021 91.1482 30.5 85.5707 30.5 78H28.5C28.5 85.5142 28.4979 91.2505 29.0947 95.6896C29.6954 100.158 30.9193 103.461 33.4792 106.021L34.8934 104.607ZM61.5 109C53.9293 109 48.3518 108.998 44.0769 108.423C39.8308 107.852 37.0198 106.733 34.8934 104.607L33.4792 106.021C36.0391 108.581 39.3425 109.805 43.8104 110.405C48.2495 111.002 53.9858 111 61.5 111V109ZM77.5 109H61.5V111H77.5V109ZM104.107 104.607C101.98 106.733 99.1692 107.852 94.9231 108.423C90.6482 108.998 85.0707 109 77.5 109V111C85.0142 111 90.7505 111.002 95.1896 110.405C99.6575 109.805 102.961 108.581 105.521 106.021L104.107 104.607ZM108.5 78C108.5 85.5707 108.498 91.1482 107.923 95.4231C107.352 99.6692 106.233 102.48 104.107 104.607L105.521 106.021C108.081 103.461 109.305 100.158 109.905 95.6896C110.502 91.2505 110.5 85.5142 110.5 78H108.5ZM108.5 62V78H110.5V62H108.5ZM104.107 35.3934C106.233 37.5198 107.352 40.3308 107.923 44.5769C108.498 48.8518 108.5 54.4293 108.5 62H110.5C110.5 54.4858 110.502 48.7495 109.905 44.3104C109.305 39.8425 108.081 36.5391 105.521 33.9792L104.107 35.3934ZM77.5 31C85.0707 31 90.6482 31.0021 94.9231 31.5769C99.1692 32.1477 101.98 33.267 104.107 35.3934L105.521 33.9792C102.961 31.4193 99.6575 30.1954 95.1896 29.5947C90.7505 28.9979 85.0142 29 77.5 29V31ZM61.5 31H77.5V29H61.5V31ZM34.8934 35.3934C37.0198 33.267 39.8308 32.1477 44.0769 31.5769C48.3518 31.0021 53.9293 31 61.5 31V29C53.9858 29 48.2495 28.9979 43.8104 29.5947C39.3425 30.1954 36.0391 31.4193 33.4792 33.9792L34.8934 35.3934ZM71.5 49C71.5 47.3431 70.1569 46 68.5 46V48C69.0523 48 69.5 48.4477 69.5 49H71.5ZM71.5 60.4135V49H69.5V60.4135H71.5ZM70.1717 59.0195C69.9947 59.296 69.813 59.6002 69.6318 59.9172L71.3682 60.9098C71.5381 60.6124 71.7021 60.3384 71.856 60.0979L70.1717 59.0195ZM71.1248 57.7806C70.7324 58.1734 70.4017 58.6602 70.1717 59.0195L71.8561 60.0979C72.073 59.759 72.3081 59.4259 72.5396 59.1942L71.1248 57.7806ZM71.1246 57.7808L71.124 57.7814L72.5405 59.1933L72.5411 59.1927L71.1246 57.7808ZM75.423 55.9997C73.8112 55.9997 72.2654 56.64 71.1257 57.7797L72.5399 59.1939C73.3046 58.4292 74.3416 57.9997 75.423 57.9997V55.9997ZM79.7203 57.7797C78.5806 56.64 77.0348 55.9997 75.423 55.9997V57.9997C76.5044 57.9997 77.5415 58.4292 78.3061 59.1939L79.7203 57.7797ZM81.5004 62.077C81.5004 60.4652 80.8601 58.9194 79.7203 57.7797L78.3061 59.1939C79.0708 59.9585 79.5004 60.9956 79.5004 62.077H81.5004ZM79.7203 66.3743C80.8601 65.2346 81.5004 63.6888 81.5004 62.077H79.5004C79.5004 63.1584 79.0708 64.1955 78.3061 64.9601L79.7203 66.3743ZM79.7198 66.3749L79.7203 66.3743L78.3061 64.9601L78.3055 64.9607L79.7198 66.3749ZM78.4805 67.3283C78.8398 67.0983 79.3267 66.7677 79.7195 66.3752L78.3058 64.9604C78.0741 65.1919 77.741 65.427 77.4021 65.644L78.4805 67.3283ZM77.5829 67.8682C77.8998 67.687 78.204 67.5054 78.4805 67.3283L77.4021 65.644C77.1617 65.7979 76.8876 65.9619 76.5903 66.1318L77.5829 67.8682ZM88.5 66H77.0866V68H88.5V66ZM91.5 69C91.5 67.3431 90.1569 66 88.5 66V68C89.0523 68 89.5 68.4477 89.5 69H91.5ZM88.5 72C90.1569 72 91.5 70.6569 91.5 69H89.5C89.5 69.5523 89.0523 70 88.5 70V72ZM77.0866 72H88.5V70H77.0866V72ZM78.4805 70.6717C78.204 70.4946 77.8998 70.313 77.5829 70.1318L76.5903 71.8682C76.8876 72.0381 77.1617 72.2021 77.4021 72.356L78.4805 70.6717ZM79.7195 71.6248C79.3267 71.2323 78.8398 70.9017 78.4805 70.6717L77.4021 72.356C77.7411 72.573 78.0741 72.8081 78.3058 73.0396L79.7195 71.6248ZM79.7212 75.8674C80.8923 74.6954 80.8915 72.7959 79.7195 71.6248L78.3058 73.0396C78.6965 73.43 78.6968 74.0631 78.3064 74.4538L79.7212 75.8674ZM75.4786 75.8692C76.6506 77.0403 78.5501 77.0395 79.7212 75.8674L78.3064 74.4538C77.9161 74.8445 77.2829 74.8448 76.8922 74.4544L75.4786 75.8692ZM75.5557 75.939C75.5562 75.9395 75.5594 75.942 75.5623 75.9443C75.5639 75.9456 75.5671 75.9481 75.571 75.9511C75.5738 75.9534 75.5825 75.9601 75.5936 75.9683C75.5991 75.9724 75.6098 75.9801 75.6236 75.9895C75.6317 75.995 75.6663 76.0187 75.7134 76.0439C75.7328 76.0544 75.7924 76.086 75.8742 76.1128C75.9142 76.126 75.9957 76.1503 76.102 76.1593C76.1934 76.167 76.4221 76.1746 76.6688 76.0387C76.9718 75.8718 77.1313 75.5859 77.1737 75.3209C77.2082 75.106 77.1631 74.9375 77.1428 74.8712C77.1004 74.732 77.0365 74.6359 77.0248 74.6178C76.9855 74.5574 76.9479 74.5146 76.9424 74.5084C76.9295 74.4934 76.9189 74.482 76.9137 74.4766C76.9031 74.4653 76.8945 74.4567 76.8918 74.454L75.4789 75.8696C75.4768 75.8675 75.4686 75.8592 75.4583 75.8483C75.4533 75.843 75.4427 75.8317 75.4299 75.8169C75.4246 75.8107 75.387 75.768 75.3478 75.7077C75.3361 75.6896 75.2722 75.5936 75.2298 75.4544C75.2095 75.3881 75.1645 75.2196 75.1989 75.0047C75.2413 74.7397 75.4009 74.4538 75.7038 74.2869C75.9505 74.151 76.1792 74.1586 76.2706 74.1664C76.3769 74.1754 76.4583 74.1996 76.4984 74.2128C76.5801 74.2396 76.6397 74.2712 76.6591 74.2816C76.7061 74.3069 76.7406 74.3305 76.7486 74.3359C76.7622 74.3451 76.7727 74.3528 76.778 74.3567C76.799 74.3722 76.8215 74.3905 76.8057 74.3779L75.5557 75.939ZM75.5994 75.9721L75.5995 75.9722L76.7619 74.3447L76.7619 74.3447L75.5994 75.9721ZM75.5448 75.9303L75.5449 75.9303L76.8163 74.3865L76.8163 74.3864L75.5448 75.9303ZM75.2454 75.7248C75.36 75.7982 75.4376 75.8519 75.4854 75.8863C75.5314 75.9194 75.552 75.9361 75.5556 75.939L76.8055 74.3777C76.7541 74.3365 76.6124 74.2252 76.3237 74.0404L75.2454 75.7248ZM74.2219 75.1258C74.6462 75.3598 74.9908 75.5617 75.2453 75.7247L76.3237 74.0404C76.0182 73.8448 75.632 73.6194 75.1874 73.3744L74.2219 75.1258ZM72.26 74.102C72.9663 74.4559 73.6424 74.8064 74.2219 75.1258L75.1874 73.3744C74.5768 73.0377 73.8755 72.6745 73.156 72.3139L72.26 74.102ZM74.6258 74.7218C74.3064 74.1424 73.9559 73.4663 73.602 72.76L71.8139 73.6559C72.1745 74.3755 72.5378 75.0768 72.8744 75.6874L74.6258 74.7218ZM75.2248 75.7453C75.0618 75.4907 74.8598 75.1462 74.6258 74.7218L72.8744 75.6874C73.1194 76.1319 73.3448 76.5182 73.5404 76.8237L75.2248 75.7453ZM75.439 76.0556C75.4362 76.052 75.4194 76.0314 75.3863 75.9854C75.3519 75.9376 75.2982 75.86 75.2248 75.7453L73.5404 76.8237C73.7252 77.1123 73.8365 77.254 73.8777 77.3055L75.439 76.0556ZM75.4379 76.0542L75.4377 76.054L73.879 77.3071L73.8791 77.3073L75.4379 76.0542ZM73.9541 77.3918C73.9567 77.3945 73.9655 77.4032 73.9768 77.4139C73.9823 77.4191 73.9938 77.4298 74.0087 77.4427C74.0153 77.4484 74.0574 77.4854 74.1168 77.5241C74.1357 77.5364 74.2275 77.5973 74.3602 77.6394C74.4238 77.6596 74.5801 77.7033 74.7817 77.6792C75.0236 77.6502 75.3167 77.5202 75.5056 77.2246C75.6642 76.9762 75.6668 76.7355 75.6615 76.6342C75.6555 76.5201 75.6311 76.4325 75.6179 76.3899C75.5909 76.303 75.5579 76.2397 75.5473 76.2197C75.5213 76.1704 75.4968 76.1343 75.4912 76.1261C75.4816 76.1119 75.4736 76.1008 75.4694 76.0951C75.461 76.0836 75.4541 76.0747 75.4518 76.0717C75.4487 76.0677 75.4461 76.0644 75.4447 76.0627C75.4423 76.0596 75.4397 76.0564 75.4392 76.0558L73.8779 77.3057C73.8905 77.3215 73.8717 77.2984 73.8557 77.2765C73.8516 77.271 73.8437 77.2601 73.8342 77.246C73.8288 77.238 73.8042 77.2019 73.7783 77.1527C73.7677 77.1327 73.7347 77.0695 73.7077 76.9826C73.6945 76.9401 73.6701 76.8525 73.6642 76.7384C73.6589 76.637 73.6614 76.3963 73.8201 76.1479C74.0089 75.8523 74.302 75.7223 74.5439 75.6934C74.7455 75.6692 74.9018 75.713 74.9654 75.7332C75.0981 75.7753 75.1899 75.8362 75.2087 75.8484C75.2681 75.8871 75.3101 75.924 75.3166 75.9296C75.3314 75.9425 75.3427 75.953 75.3481 75.958C75.3591 75.9684 75.3674 75.9767 75.3696 75.9789L73.9541 77.3918ZM75.3675 80.2212C76.5395 79.0501 76.5403 77.1506 75.3692 75.9786L73.9544 77.3922C74.3448 77.7829 74.3445 78.416 73.9538 78.8064L75.3675 80.2212ZM71.1248 80.2194C72.2959 81.3915 74.1954 81.3923 75.3675 80.2212L73.9538 78.8064C73.5631 79.1968 72.93 79.1965 72.5396 78.8058L71.1248 80.2194ZM70.1717 78.9805C70.4017 79.3398 70.7324 79.8266 71.1248 80.2194L72.5396 78.8058C72.3081 78.5741 72.073 78.241 71.8561 77.9021L70.1717 78.9805ZM69.6318 78.0828C69.813 78.3998 69.9947 78.704 70.1717 78.9805L71.856 77.9021C71.7021 77.6616 71.5381 77.3876 71.3682 77.0902L69.6318 78.0828ZM71.5 89V77.5865H69.5V89H71.5ZM68.5 92C70.1569 92 71.5 90.6569 71.5 89H69.5C69.5 89.5523 69.0523 90 68.5 90V92ZM65.5 89C65.5 90.6569 66.8431 92 68.5 92V90C67.9477 90 67.5 89.5523 67.5 89H65.5ZM65.5 77.5865V89H67.5V77.5865H65.5ZM66.8284 78.9804C67.0054 78.7039 67.187 78.3997 67.3682 78.0827L65.6318 77.0902C65.4619 77.3876 65.298 77.6616 65.144 77.902L66.8284 78.9804ZM65.8752 80.2194C66.2677 79.8266 66.5984 79.3396 66.8284 78.9804L65.144 77.902C64.927 78.241 64.6919 78.5741 64.4604 78.8058L65.8752 80.2194ZM65.8743 80.2203L65.8749 80.2197L64.4607 78.8055L64.4601 78.8061L65.8743 80.2203ZM63.9027 81.5377C64.6401 81.2323 65.31 80.7846 65.8743 80.2203L64.4601 78.8061C64.0815 79.1847 63.632 79.4851 63.1374 79.69L63.9027 81.5377ZM61.577 82.0003C62.3751 82.0003 63.1654 81.8431 63.9027 81.5377L63.1374 79.69C62.6427 79.8949 62.1125 80.0003 61.577 80.0003V82.0003ZM59.2513 81.5377C59.9887 81.8431 60.7789 82.0003 61.577 82.0003V80.0003C61.0416 80.0003 60.5114 79.8949 60.0167 79.69L59.2513 81.5377ZM57.2797 80.2203C57.844 80.7846 58.514 81.2323 59.2513 81.5377L60.0167 79.69C59.522 79.4851 59.0725 79.1847 58.6939 78.8061L57.2797 80.2203ZM55.9623 78.2487C56.2677 78.986 56.7154 79.656 57.2797 80.2203L58.6939 78.8061C58.3153 78.4275 58.015 77.978 57.8101 77.4833L55.9623 78.2487ZM55.4997 75.923C55.4997 76.7211 55.6569 77.5114 55.9623 78.2487L57.8101 77.4833C57.6052 76.9886 57.4997 76.4584 57.4997 75.923H55.4997ZM55.9623 73.5973C55.6569 74.3346 55.4997 75.1249 55.4997 75.923H57.4997C57.4997 75.3876 57.6052 74.8574 57.8101 74.3627L55.9623 73.5973ZM57.2797 71.6257C56.7154 72.19 56.2677 72.86 55.9623 73.5973L57.8101 74.3627C58.015 73.868 58.3153 73.4185 58.6939 73.0399L57.2797 71.6257ZM57.2814 71.6239L57.2809 71.6245L58.6928 73.041L58.6934 73.0405L57.2814 71.6239ZM58.5194 70.6717C58.1601 70.9017 57.6733 71.2324 57.2806 71.6248L58.6942 73.0396C58.9259 72.8081 59.259 72.573 59.5979 72.356L58.5194 70.6717ZM59.4169 70.1319C59.1 70.3131 58.7958 70.4947 58.5194 70.6717L59.5979 72.356C59.8383 72.2021 60.1123 72.0381 60.4096 71.8681L59.4169 70.1319ZM48.5 72H59.9133V70H48.5V72ZM45.5 69C45.5 70.6569 46.8431 72 48.5 72V70C47.9477 70 47.5 69.5523 47.5 69H45.5ZM48.5 66C46.8431 66 45.5 67.3431 45.5 69H47.5C47.5 68.4477 47.9477 68 48.5 68V66ZM59.9135 66H48.5V68H59.9135V66ZM58.5195 67.3283C58.796 67.5054 59.1002 67.687 59.4172 67.8682L60.4097 66.1318C60.1124 65.9619 59.8384 65.7979 59.5979 65.644L58.5195 67.3283ZM57.2806 66.3752C57.6734 66.7677 58.1603 67.0983 58.5195 67.3283L59.5979 65.644C59.259 65.427 58.9259 65.1919 58.6942 64.9604L57.2806 66.3752ZM57.2788 62.1326C56.1077 63.3046 56.1085 65.2041 57.2806 66.3752L58.6942 64.9604C58.3035 64.57 58.3033 63.9369 58.6936 63.5462L57.2788 62.1326ZM61.5215 62.1308C60.3494 60.9597 58.4499 60.9605 57.2788 62.1326L58.6936 63.5462C59.084 63.1555 59.7171 63.1552 60.1078 63.5456L61.5215 62.1308ZM61.4448 62.0613C61.4441 62.0607 61.4409 62.0582 61.4378 62.0557C61.4361 62.0544 61.4329 62.0518 61.429 62.0487C61.426 62.0464 61.4174 62.0397 61.4063 62.0316C61.4008 62.0276 61.3903 62.0199 61.3768 62.0108C61.3685 62.0051 61.3356 61.9826 61.2909 61.9584C61.2717 61.948 61.2178 61.9191 61.1441 61.8933C61.1076 61.8805 61.0375 61.8582 60.9463 61.846C60.8695 61.8357 60.6779 61.818 60.4547 61.9039C60.1768 62.0108 59.95 62.2415 59.8573 62.5453C59.7827 62.7896 59.8223 62.9921 59.842 63.0731C59.8818 63.2375 59.9554 63.3508 59.9664 63.3683C60.0083 63.4352 60.0496 63.4823 60.0546 63.4882C60.0683 63.5041 60.0795 63.5162 60.0849 63.5219C60.096 63.5338 60.1051 63.5429 60.1079 63.5456L61.5214 62.1308C61.5237 62.133 61.5323 62.1416 61.5432 62.1532C61.5484 62.1587 61.5595 62.1707 61.5731 62.1865C61.578 62.1923 61.6192 62.2394 61.6611 62.3062C61.672 62.3237 61.7456 62.437 61.7855 62.6013C61.8052 62.6823 61.8447 62.8848 61.7702 63.1291C61.6775 63.4329 61.4507 63.6636 61.1728 63.7705C60.9496 63.8564 60.758 63.8386 60.6812 63.8284C60.59 63.8162 60.5199 63.7938 60.4834 63.7811C60.4098 63.7553 60.3559 63.7265 60.3367 63.7161C60.2921 63.6918 60.2593 63.6694 60.2511 63.6639C60.2378 63.6548 60.2275 63.6473 60.2222 63.6434C60.201 63.6278 60.1788 63.6097 60.1941 63.622L61.4448 62.0613ZM61.4195 62.0417L61.4195 62.0417L60.2195 63.6417L60.2195 63.6417L61.4195 62.0417ZM61.7547 62.2753C61.6401 62.2019 61.5626 62.1482 61.5147 62.1138C61.4687 62.0807 61.4481 62.0639 61.4445 62.0611L60.1946 63.6223C60.2462 63.6637 60.3879 63.775 60.6763 63.9596L61.7547 62.2753ZM62.7782 62.8742C62.3539 62.6402 62.0093 62.4383 61.7547 62.2753L60.6763 63.9596C60.9818 64.1552 61.3681 64.3806 61.8126 64.6257L62.7782 62.8742ZM64.7406 63.8983C64.0341 63.5443 63.3578 63.1937 62.7782 62.8742L61.8126 64.6257C62.4234 64.9623 63.1248 65.3257 63.8446 65.6864L64.7406 63.8983ZM62.3745 63.2784C62.694 63.8579 63.0446 64.534 63.3986 65.2404L65.1866 64.3443C64.8259 63.6246 64.4626 62.9233 64.1259 62.3127L62.3745 63.2784ZM61.7754 62.2548C61.9385 62.5094 62.1405 62.854 62.3745 63.2784L64.1259 62.3127C63.8808 61.8681 63.6554 61.4819 63.4597 61.1763L61.7754 62.2548ZM61.5611 61.9445C61.5639 61.948 61.5807 61.9686 61.6138 62.0146C61.6482 62.0625 61.702 62.1401 61.7754 62.2548L63.4597 61.1763C63.2748 60.8876 63.1635 60.7459 63.1223 60.6944L61.5611 61.9445ZM61.5677 61.9526L61.5677 61.9527L63.1156 60.6862L63.1156 60.6862L61.5677 61.9526ZM63.0453 60.6075C63.0426 60.6048 63.0337 60.5958 63.0219 60.5848C63.0162 60.5795 63.0042 60.5683 62.9885 60.5548C62.9825 60.5497 62.936 60.509 62.8701 60.4675C62.8524 60.4564 62.7417 60.3843 62.5812 60.3439C62.5026 60.3242 62.3052 60.2835 62.0648 60.3515C61.7651 60.4364 61.5255 60.6547 61.4107 60.9376C61.3186 61.1644 61.3352 61.361 61.3452 61.4397C61.357 61.5329 61.3796 61.6044 61.3925 61.6415C61.4184 61.7163 61.4476 61.771 61.458 61.7902C61.4824 61.8353 61.5051 61.8684 61.5107 61.8767C61.5199 61.8902 61.5275 61.9007 61.5315 61.9061C61.5397 61.9172 61.5463 61.9258 61.5486 61.9287C61.5516 61.9326 61.5541 61.9358 61.5554 61.9374C61.5578 61.9404 61.5603 61.9436 61.5608 61.9442L63.1225 60.6946C63.1099 60.679 63.1281 60.7013 63.1435 60.7223C63.1474 60.7275 63.1549 60.7379 63.164 60.7512C63.1695 60.7594 63.1921 60.7924 63.2165 60.8374C63.2269 60.8566 63.2561 60.9113 63.282 60.986C63.2948 61.023 63.3174 61.0946 63.3293 61.1878C63.3392 61.2664 63.3559 61.463 63.2638 61.6899C63.1489 61.9728 62.9093 62.191 62.6097 62.2759C62.3693 62.344 62.1719 62.3033 62.0933 62.2835C61.9328 62.2431 61.8221 62.1711 61.8045 62.16C61.7386 62.1185 61.6922 62.0779 61.6863 62.0729C61.6707 62.0594 61.6588 62.0484 61.6533 62.0432C61.6419 62.0325 61.6333 62.0239 61.6311 62.0217L63.0453 60.6075ZM61.6326 57.7788C60.4605 58.9499 60.4597 60.8494 61.6308 62.0214L63.0456 60.6078C62.6553 60.2171 62.6555 59.584 63.0462 59.1936L61.6326 57.7788ZM65.8752 57.7806C64.7041 56.6085 62.8046 56.6077 61.6326 57.7788L63.0462 59.1936C63.4369 58.8032 64.0701 58.8035 64.4604 59.1942L65.8752 57.7806ZM66.8283 59.0193C66.5983 58.6601 66.2676 58.1733 65.8752 57.7806L64.4604 59.1942C64.6919 59.4259 64.927 59.7589 65.144 60.0978L66.8283 59.0193ZM67.3681 59.9168C67.1869 59.5999 67.0053 59.2958 66.8283 59.0193L65.144 60.0978C65.298 60.3383 65.4619 60.6122 65.6319 60.9095L67.3681 59.9168ZM65.5 49V60.4132H67.5V49H65.5ZM68.5 46C66.8431 46 65.5 47.3431 65.5 49H67.5C67.5 48.4477 67.9477 48 68.5 48V46ZM64.1257 75.6873C64.4623 75.0766 64.8256 74.3752 65.1861 73.6555L63.398 72.7596C63.0441 73.4661 62.6936 74.1422 62.3741 74.7218L64.1257 75.6873ZM63.4596 76.8237C63.6552 76.5182 63.8806 76.1319 64.1257 75.6873L62.3741 74.7218C62.1402 75.1462 61.9382 75.4908 61.7752 75.7454L63.4596 76.8237ZM63.1223 77.3055C63.1636 77.254 63.2749 77.1123 63.4596 76.8237L61.7752 75.7454C61.7018 75.86 61.6481 75.9376 61.6137 75.9855C61.5806 76.0314 61.5639 76.052 61.561 76.0556L63.1223 77.3055ZM61.6305 75.9789C61.6326 75.9768 61.6411 75.9682 61.6524 75.9576C61.6579 75.9525 61.6696 75.9415 61.6851 75.9282C61.6909 75.9232 61.7366 75.8831 61.8014 75.842C61.8189 75.8308 61.9272 75.7599 62.0842 75.7188C62.1606 75.6989 62.3543 75.6566 62.5924 75.7194C62.8902 75.798 63.1377 76.0104 63.2589 76.2985C63.3559 76.5288 63.3395 76.7296 63.3296 76.8092C63.3179 76.9037 63.2951 76.9762 63.2822 77.0134C63.2561 77.0887 63.2267 77.1437 63.2163 77.1628C63.1919 77.2079 63.1693 77.2409 63.1638 77.249C63.1548 77.2623 63.1472 77.2726 63.1434 77.2779C63.128 77.2989 63.1099 77.321 63.1223 77.3055L61.561 76.0556C61.5605 76.0562 61.558 76.0594 61.5555 76.0624C61.5542 76.0641 61.5517 76.0673 61.5487 76.0712C61.5464 76.0741 61.5398 76.0826 61.5317 76.0937C61.5276 76.0992 61.52 76.1096 61.5108 76.1231C61.5053 76.1313 61.4826 76.1645 61.4581 76.2096C61.4478 76.2287 61.4183 76.2838 61.3922 76.3591C61.3794 76.3963 61.3565 76.4688 61.3448 76.5634C61.3349 76.643 61.3186 76.8438 61.4155 77.0741C61.5367 77.3622 61.7843 77.5746 62.0821 77.6532C62.3201 77.716 62.5139 77.6737 62.5902 77.6538C62.7473 77.6127 62.8556 77.5417 62.8731 77.5306C62.9379 77.4894 62.9837 77.4493 62.9897 77.4441C63.0053 77.4307 63.0171 77.4197 63.0227 77.4144C63.0344 77.4034 63.0433 77.3945 63.046 77.3918L61.6305 75.9789ZM62.372 77.8422C62.6235 77.738 62.8521 77.5854 63.0448 77.393L61.6317 75.9777C61.6245 75.9849 61.616 75.9906 61.6066 75.9944L62.372 77.8422ZM61.577 78.0003C61.8498 78.0003 62.12 77.9466 62.372 77.8422L61.6066 75.9944C61.5972 75.9983 61.5872 76.0003 61.577 76.0003V78.0003ZM60.7821 77.8422C61.0341 77.9466 61.3042 78.0003 61.577 78.0003V76.0003C61.5669 76.0003 61.5568 75.9983 61.5474 75.9944L60.7821 77.8422ZM60.1081 77.3919C60.301 77.5848 60.53 77.7378 60.7821 77.8422L61.5474 75.9944C61.5381 75.9906 61.5295 75.9849 61.5223 75.9777L60.1081 77.3919ZM59.6578 76.7179C59.7622 76.97 59.9152 77.199 60.1081 77.3919L61.5223 75.9777C61.5152 75.9705 61.5095 75.962 61.5056 75.9526L59.6578 76.7179ZM59.4997 75.923C59.4997 76.1958 59.5534 76.4659 59.6578 76.718L61.5056 75.9526C61.5017 75.9432 61.4997 75.9332 61.4997 75.923H59.4997ZM59.6578 75.128C59.5534 75.3801 59.4997 75.6502 59.4997 75.923H61.4997C61.4997 75.9128 61.5017 75.9028 61.5056 75.8934L59.6578 75.128ZM60.1064 74.4559C59.9143 74.6484 59.7619 74.8768 59.6578 75.1281L61.5056 75.8934C61.5095 75.8841 61.5151 75.8756 61.5223 75.8684L60.1064 74.4559ZM60.1946 74.3776C60.1831 74.3868 60.1991 74.3738 60.2149 74.362C60.2171 74.3604 60.2414 74.342 60.2737 74.3212C60.28 74.3171 60.3389 74.2783 60.4204 74.2434C60.4399 74.2351 60.5845 74.1696 60.7817 74.1633C60.8863 74.16 61.1154 74.1689 61.3521 74.3201C61.6292 74.4971 61.7648 74.7698 61.802 75.0098C61.8332 75.2117 61.7945 75.3708 61.7747 75.4395C61.7517 75.5193 61.7235 75.5797 61.7067 75.6129C61.6733 75.6791 61.6399 75.7267 61.6268 75.7449C61.5974 75.786 61.5713 75.8156 61.5643 75.8235C61.5456 75.8448 61.5299 75.8606 61.5274 75.8632L60.1013 74.461C60.0983 74.464 60.0824 74.4801 60.0634 74.5017C60.0563 74.5097 60.0302 74.5394 60.0007 74.5805C59.9877 74.5988 59.9542 74.6464 59.9208 74.7126C59.904 74.7459 59.8758 74.8063 59.8528 74.886C59.833 74.9548 59.7943 75.1139 59.8255 75.3158C59.8627 75.5557 59.9983 75.8285 60.2754 76.0055C60.512 76.1567 60.7412 76.1656 60.8458 76.1623C61.043 76.156 61.1876 76.0905 61.2071 76.0822C61.2887 76.0473 61.3477 76.0084 61.3541 76.0043C61.3867 75.9834 61.4113 75.9647 61.4139 75.9628C61.4269 75.953 61.4376 75.9444 61.438 75.9441C61.4408 75.9419 61.4436 75.9397 61.4444 75.939L60.1946 74.3776ZM60.6764 74.0403C60.3877 74.2252 60.2459 74.3365 60.1944 74.3778L61.4446 75.9389C61.4481 75.9361 61.4686 75.9194 61.5146 75.8863C61.5625 75.8518 61.6401 75.7981 61.7548 75.7246L60.6764 74.0403ZM61.8127 73.3742C61.3682 73.6193 60.9819 73.8447 60.6763 74.0403L61.7549 75.7246C62.0095 75.5616 62.354 75.3595 62.7784 75.1256L61.8127 73.3742ZM63.844 72.3136C63.1245 72.6742 62.4232 73.0375 61.8127 73.3742L62.7784 75.1256C63.3578 74.8061 64.0339 74.4555 64.7401 74.1016L63.844 72.3136ZM74.2219 62.8742C73.6424 63.1936 72.9663 63.5441 72.26 63.898L73.1559 65.6861C73.8755 65.3255 74.5768 64.9623 75.1874 64.6257L74.2219 62.8742ZM75.2453 62.2753C74.9908 62.4383 74.6462 62.6402 74.2219 62.8742L75.1874 64.6257C75.632 64.3806 76.0182 64.1552 76.3237 63.9596L75.2453 62.2753ZM75.5556 62.061C75.552 62.0639 75.5314 62.0806 75.4855 62.1137C75.4376 62.1481 75.36 62.2018 75.2453 62.2753L76.3237 63.9596C76.6124 63.7748 76.7541 63.6635 76.8056 63.6223L75.5556 62.061ZM75.5404 62.0734L75.5404 62.0734L76.8207 63.6099L76.8208 63.6099L75.5404 62.0734ZM76.8925 63.5453C76.8952 63.5426 76.9042 63.5336 76.9153 63.5218C76.9206 63.5161 76.9318 63.5041 76.9453 63.4883C76.9505 63.4823 76.991 63.436 77.0323 63.3704C77.0436 63.3525 77.1147 63.2432 77.1552 63.0849C77.175 63.0074 77.2157 62.8138 77.1518 62.5767C77.0722 62.2816 76.8612 62.0371 76.5764 61.9164C76.3476 61.8195 76.1477 61.8347 76.0673 61.8443C75.9724 61.8557 75.8995 61.8784 75.8619 61.8913C75.786 61.9173 75.7305 61.9468 75.7111 61.9573C75.6656 61.9819 75.6321 62.0047 75.6238 62.0104C75.6102 62.0196 75.5996 62.0273 75.5941 62.0314C75.5829 62.0396 75.5742 62.0463 75.5713 62.0486C75.5673 62.0517 75.5641 62.0542 75.5625 62.0555C75.5594 62.0579 75.5562 62.0605 75.5556 62.061L76.8056 63.6222C76.8212 63.6098 76.7988 63.628 76.7776 63.6436C76.7722 63.6475 76.7618 63.6551 76.7483 63.6643C76.7402 63.6698 76.7068 63.6926 76.6613 63.7172C76.642 63.7276 76.5865 63.7571 76.5106 63.7831C76.4731 63.796 76.4002 63.8187 76.3053 63.8301C76.2249 63.8397 76.025 63.8549 75.7962 63.758C75.5114 63.6373 75.3004 63.3928 75.2208 63.0977C75.1569 62.8606 75.1977 62.667 75.2175 62.5895C75.2579 62.4312 75.329 62.322 75.3403 62.3041C75.3816 62.2386 75.422 62.1923 75.4271 62.1864C75.4405 62.1707 75.4516 62.1589 75.4567 62.1534C75.4675 62.1419 75.4761 62.1333 75.4783 62.1311L76.8925 63.5453ZM75.5004 62.077C75.5004 62.0975 75.4922 62.1171 75.4777 62.1316L76.893 63.5448C77.2819 63.1553 77.5004 62.6274 77.5004 62.077H75.5004ZM75.4777 62.0223C75.4922 62.0368 75.5004 62.0565 75.5004 62.077H77.5004C77.5004 61.5261 77.2815 60.9977 76.8919 60.6081L75.4777 62.0223ZM75.423 61.9997C75.4435 61.9997 75.4632 62.0078 75.4777 62.0223L76.8919 60.6081C76.5023 60.2185 75.974 59.9997 75.423 59.9997V61.9997ZM75.3684 62.0222C75.3829 62.0078 75.4026 61.9997 75.423 61.9997V59.9997C74.8732 59.9997 74.3458 60.2177 73.9565 60.6058L75.3684 62.0222ZM75.4389 61.9446C75.4396 61.9437 75.4416 61.9411 75.4437 61.9386C75.4447 61.9373 75.4511 61.9293 75.4585 61.9195C75.4616 61.9155 75.4716 61.9022 75.4837 61.8849C75.4894 61.8767 75.5019 61.8585 75.5165 61.8345C75.5195 61.8297 75.57 61.7505 75.608 61.6402C75.6151 61.6199 75.6991 61.4003 75.644 61.1206C75.6093 60.9445 75.5092 60.7004 75.2669 60.5168C75.0338 60.3401 74.7894 60.311 74.6433 60.3139C74.3968 60.3187 74.2215 60.416 74.1998 60.4273C74.143 60.457 74.1015 60.4858 74.083 60.4989C74.0437 60.5269 74.0152 60.5516 74.0063 60.5594C73.9936 60.5705 73.9837 60.5796 73.9782 60.5848L75.3467 62.0432C75.3414 62.0482 75.3316 62.0573 75.319 62.0683C75.3101 62.076 75.2817 62.1006 75.2425 62.1286C75.2241 62.1417 75.1826 62.1704 75.1257 62.2001C75.1041 62.2114 74.9288 62.3087 74.6823 62.3135C74.5362 62.3164 74.2919 62.2873 74.0587 62.1106C73.8165 61.927 73.7163 61.683 73.6817 61.5068C73.6266 61.2271 73.7106 61.0076 73.7176 60.9873C73.7557 60.8771 73.8061 60.7979 73.809 60.7932C73.8236 60.7693 73.836 60.7512 73.8416 60.7431C73.8535 60.726 73.8633 60.7132 73.866 60.7096C73.8752 60.6975 73.8845 60.686 73.8779 60.6943L75.4389 61.9446ZM75.2248 62.2547C75.2982 62.14 75.3519 62.0624 75.3863 62.0146C75.4194 61.9686 75.4362 61.948 75.439 61.9445L73.8777 60.6945C73.8365 60.746 73.7252 60.8877 73.5404 61.1763L75.2248 62.2547ZM74.6258 63.2782C74.8598 62.8538 75.0618 62.5093 75.2248 62.2547L73.5404 61.1763C73.3448 61.4818 73.1194 61.8681 72.8744 62.3126L74.6258 63.2782ZM73.602 65.24C73.9559 64.5337 74.3064 63.8576 74.6258 63.2782L72.8744 62.3126C72.5378 62.9232 72.1745 63.6245 71.8139 64.3441L73.602 65.24Z" fill="black" mask="url(#path-6-inside-1_101_613)"/>
</g>
</g>
<defs>
<filter id="filter0_f_101_613" x="0" y="0" width="140" height="140" filterUnits="userSpaceOnUse" color-interpolation-filters="sRGB">
<feFlood flood-opacity="0" result="BackgroundImageFix"/>
<feBlend mode="normal" in="SourceGraphic" in2="BackgroundImageFix" result="shape"/>
<feGaussianBlur stdDeviation="15" result="effect1_foregroundBlur_101_613"/>
</filter>
<filter id="filter1_d_101_613" x="25.5" y="30" width="88" height="88" filterUnits="userSpaceOnUse" color-interpolation-filters="sRGB">
<feFlood flood-opacity="0" result="BackgroundImageFix"/>
<feColorMatrix in="SourceAlpha" type="matrix" values="0 0 0 0 0 0 0 0 0 0 0 0 0 0 0 0 0 0 127 0" result="hardAlpha"/>
<feOffset dy="4"/>
<feGaussianBlur stdDeviation="2"/>
<feComposite in2="hardAlpha" operator="out"/>
<feColorMatrix type="matrix" values="0 0 0 0 0 0 0 0 0 0 0 0 0 0 0 0 0 0 0.25 0"/>
<feBlend mode="normal" in2="BackgroundImageFix" result="effect1_dropShadow_101_613"/>
<feBlend mode="normal" in="SourceGraphic" in2="effect1_dropShadow_101_613" result="shape"/>
</filter>
<linearGradient id="paint0_linear_101_613" x1="104.5" y1="34.5" x2="29.5" y2="102.5" gradientUnits="userSpaceOnUse">
<stop stop-color="#1D1B1E"/>
<stop offset="1" stop-color="#1D1B1E"/>
</linearGradient>
</defs>
</svg>
