<svg width="181" height="26" viewBox="0 0 181 26" fill="none" xmlns="http://www.w3.org/2000/svg">
<path d="M61.688 25.2096C60.6136 25.2096 59.4892 25.2721 58.3148 25.397C58.2649 25.3221 58.2274 25.1722 58.2024 24.9473C58.2024 24.7224 58.2399 24.56 58.3148 24.4601C58.7896 24.4601 59.1644 24.4101 59.4392 24.3101C59.7141 24.2102 59.864 24.1227 59.889 24.0478C60.0139 23.698 60.0764 22.9234 60.0764 21.7241V13.1787C60.0764 12.9788 60.0514 12.679 60.0014 12.2792C59.9514 11.8795 59.9015 11.6296 59.8515 11.5296C59.7265 11.2798 59.3018 11.1299 58.5772 11.0799C58.4273 11.0549 58.3273 11.0424 58.2773 11.0424C58.2524 11.0174 58.2399 10.8925 58.2399 10.6676C58.2399 10.4178 58.2649 10.2928 58.3148 10.2928C59.2643 10.2179 60.1888 10.043 61.0883 9.76811C61.9878 9.46827 62.6749 9.20592 63.1497 8.98104C63.2496 9.00603 63.3371 9.06849 63.412 9.16844C63.512 9.26838 63.5495 9.35584 63.5245 9.4308C63.5245 9.48077 63.487 9.58071 63.412 9.73063C63.3621 9.85556 63.3371 9.99299 63.3371 10.1429C63.3371 10.2678 63.3496 10.3553 63.3745 10.4053C63.3995 10.4302 63.512 10.3303 63.7119 10.1054C63.9118 9.88055 64.2491 9.63069 64.7238 9.35584C65.1985 9.056 65.7233 8.90608 66.2979 8.90608C66.8726 8.90608 67.4473 9.056 68.022 9.35584C68.6217 9.65567 69.1339 10.0555 69.5587 10.5552C70.4332 11.5546 70.8704 12.779 70.8704 14.2282C70.8704 16.0022 70.1958 17.4764 68.8465 18.6507C67.6722 19.6752 66.3229 20.1874 64.7988 20.1874C64.449 20.1874 64.1366 20.1499 63.8618 20.075C63.5869 20 63.4245 19.9625 63.3745 19.9625C63.3246 19.9625 63.2996 20.0999 63.2996 20.3748V21.7241C63.2996 22.9234 63.3621 23.698 63.487 24.0478C63.5869 24.3226 64.1116 24.4601 65.0611 24.4601C65.1361 24.56 65.1611 24.7224 65.1361 24.9473C65.1361 25.1722 65.1111 25.3221 65.0611 25.397C63.8618 25.2721 62.7374 25.2096 61.688 25.2096ZM63.2996 17.6388C63.2996 18.1385 63.4745 18.5133 63.8243 18.7632C64.1741 18.9881 64.4989 19.1005 64.7988 19.1005C65.1236 19.1005 65.4234 19.0255 65.6983 18.8756C65.9731 18.7257 66.223 18.4883 66.4479 18.1635C67.0225 17.3889 67.3099 16.3645 67.3099 15.0902C67.3099 13.8159 67.1225 12.779 66.7477 11.9794C66.3729 11.1548 65.6733 10.7426 64.6489 10.7426C64.1991 10.7426 63.8618 10.8425 63.6369 11.0424C63.412 11.2423 63.2996 11.3672 63.2996 11.4172V17.6388ZM76.2261 20.1124C74.9768 19.9875 73.8399 19.925 72.8155 19.925C71.816 19.925 70.6916 19.9875 69.4423 20.1124C69.3924 20.0375 69.3674 19.8876 69.3674 19.6627C69.3674 19.4378 69.3924 19.2754 69.4423 19.1755C69.967 19.1755 70.3543 19.1255 70.6042 19.0255C70.8541 18.9006 70.9915 18.8007 71.0165 18.7257C71.1414 18.4758 71.2039 18.1635 71.2039 17.7887C71.2288 17.4139 71.2413 16.9517 71.2413 16.402V6.20756C71.2413 5.65786 71.2039 5.30806 71.1289 5.15814C71.0539 4.98323 70.9415 4.87079 70.7916 4.82082C70.6667 4.77085 70.5292 4.73337 70.3793 4.70838C70.0295 4.60844 69.7671 4.55847 69.5922 4.55847C69.5423 4.55847 69.5048 4.44603 69.4798 4.22115C69.4798 3.97129 69.5173 3.82137 69.5922 3.7714C71.2663 3.59649 72.728 3.30915 73.9773 2.90937C74.2022 2.83441 74.3271 2.79693 74.3521 2.79693C74.527 2.8469 74.652 2.99682 74.7269 3.24668C74.677 3.54652 74.627 3.83386 74.577 4.10871C74.5021 4.48351 74.4646 5.03321 74.4646 5.75781V16.402C74.4646 17.6513 74.5021 18.3759 74.577 18.5758C74.652 18.7507 74.7519 18.8756 74.8768 18.9506C75.0268 19.0005 75.1767 19.0505 75.3266 19.1005C75.6014 19.1505 75.9013 19.1755 76.2261 19.1755C76.2761 19.2754 76.3011 19.4378 76.3011 19.6627C76.3011 19.8876 76.2761 20.0375 76.2261 20.1124ZM79.1987 18.4633C79.5235 18.4633 79.7734 18.4009 79.9483 18.2759C80.1482 18.126 80.2481 18.0136 80.2481 17.9386V14.4905C79.9733 14.6155 79.6859 14.7404 79.3861 14.8653C79.1112 14.9653 78.8239 15.1152 78.5241 15.3151C77.9744 15.6899 77.6995 16.1896 77.6995 16.8142C77.7245 17.4389 77.8994 17.8762 78.2242 18.126C78.549 18.3509 78.8739 18.4633 79.1987 18.4633ZM84.7456 18.0885C84.8706 18.1635 84.933 18.2759 84.933 18.4259C84.933 18.5758 84.8956 18.7257 84.8206 18.8756C84.6707 19.0255 84.4083 19.2254 84.0335 19.4753C83.3589 19.925 82.7967 20.1499 82.347 20.1499C81.8972 20.1499 81.4849 20.025 81.1101 19.7751C80.7603 19.5003 80.523 19.2129 80.398 18.9131C80.0482 19.2629 79.5485 19.5627 78.8988 19.8126C78.2742 20.0625 77.787 20.1874 77.4372 20.1874C77.0873 20.1874 76.7125 20.0999 76.3128 19.925C75.913 19.7501 75.5757 19.5253 75.3008 19.2504C74.6762 18.6258 74.3638 18.0011 74.3638 17.3764C74.3638 16.7518 74.4888 16.2645 74.7386 15.9147C75.0135 15.5399 75.2883 15.3151 75.5632 15.2401C75.863 15.1402 76.2003 15.0152 76.5751 14.8653C76.9749 14.7154 77.3997 14.553 77.8494 14.3781C78.4241 14.1782 79.2237 13.8784 80.2481 13.4786V12.3167C80.2481 11.6921 80.1107 11.1299 79.8358 10.6301C79.561 10.1054 79.1987 9.84307 78.7489 9.84307C78.2992 9.84307 77.9744 10.043 77.7745 10.4427C77.5996 10.8425 77.4746 11.2548 77.3997 11.6796C77.1998 12.5541 76.7125 12.9913 75.938 12.9913C75.6132 12.9913 75.3133 12.8914 75.0385 12.6915C74.7886 12.4666 74.6637 12.2293 74.6637 11.9794C74.6637 11.6296 74.7761 11.2298 75.001 10.7801C75.2758 10.5052 75.7256 10.2054 76.3502 9.88055C77.6245 9.2309 78.7614 8.90608 79.7609 8.90608C80.7853 8.90608 81.6473 9.25589 82.347 9.95551C83.0716 10.6551 83.4339 11.5671 83.4339 12.6915V17.3015C83.4339 17.6513 83.4963 17.9136 83.6213 18.0885C83.7462 18.2385 83.8836 18.3134 84.0335 18.3134C84.2084 18.3134 84.3584 18.2759 84.4833 18.201L84.7456 18.0885ZM83.242 10.2553C83.4419 9.98049 83.7042 9.70564 84.0291 9.4308H85.116V8.11901C85.5907 7.69425 86.0405 7.24449 86.4652 6.76975C86.915 6.29501 87.3272 5.87025 87.702 5.49545C87.852 5.39551 87.9894 5.35803 88.1143 5.38301C88.2392 5.38301 88.3142 5.42049 88.3392 5.49545V9.4308H91.1502C91.2501 9.4308 91.3001 9.55573 91.3001 9.80559C91.3001 10.0305 91.1127 10.2928 90.7379 10.5927H88.3392V16.7018C88.3392 17.9511 88.7889 18.5758 89.6885 18.5758C89.9633 18.5758 90.2382 18.5008 90.513 18.3509C90.7879 18.176 90.9503 18.0636 91.0002 18.0136C91.1002 18.1135 91.1502 18.201 91.1502 18.2759C91.1502 18.5008 91.1002 18.6632 91.0002 18.7632C90.9253 18.8631 90.8003 18.9881 90.6254 19.138C90.4755 19.2879 90.2881 19.4378 90.0632 19.5877C89.4136 19.9875 88.8639 20.1874 88.4142 20.1874C87.9894 20.1874 87.5771 20.1249 87.1773 20C86.8025 19.9001 86.4652 19.7002 86.1654 19.4003C85.4658 18.7757 85.116 17.8262 85.116 16.5519V10.5927H83.3544C83.2795 10.5427 83.242 10.4302 83.242 10.2553ZM94.8529 18.4633C95.1777 18.4633 95.4275 18.4009 95.6024 18.2759C95.8023 18.126 95.9023 18.0136 95.9023 17.9386V14.4905C95.6274 14.6155 95.3401 14.7404 95.0402 14.8653C94.7654 14.9653 94.4781 15.1152 94.1782 15.3151C93.6285 15.6899 93.3537 16.1896 93.3537 16.8142C93.3787 17.4389 93.5536 17.8762 93.8784 18.126C94.2032 18.3509 94.528 18.4633 94.8529 18.4633ZM100.4 18.0885C100.525 18.1635 100.587 18.2759 100.587 18.4259C100.587 18.5758 100.55 18.7257 100.475 18.8756C100.325 19.0255 100.062 19.2254 99.6877 19.4753C99.0131 19.925 98.4509 20.1499 98.0011 20.1499C97.5514 20.1499 97.1391 20.025 96.7643 19.7751C96.4145 19.5003 96.1771 19.2129 96.0522 18.9131C95.7024 19.2629 95.2027 19.5627 94.553 19.8126C93.9284 20.0625 93.4411 20.1874 93.0913 20.1874C92.7415 20.1874 92.3667 20.0999 91.9669 19.925C91.5672 19.7501 91.2298 19.5253 90.955 19.2504C90.3303 18.6258 90.018 18.0011 90.018 17.3764C90.018 16.7518 90.1429 16.2645 90.3928 15.9147C90.6676 15.5399 90.9425 15.3151 91.2173 15.2401C91.5172 15.1402 91.8545 15.0152 92.2293 14.8653C92.6291 14.7154 93.0538 14.553 93.5036 14.3781C94.0783 14.1782 94.8778 13.8784 95.9023 13.4786V12.3167C95.9023 11.6921 95.7649 11.1299 95.49 10.6301C95.2152 10.1054 94.8529 9.84307 94.4031 9.84307C93.9533 9.84307 93.6285 10.043 93.4286 10.4427C93.2537 10.8425 93.1288 11.2548 93.0538 11.6796C92.8539 12.5541 92.3667 12.9913 91.5921 12.9913C91.2673 12.9913 90.9675 12.8914 90.6926 12.6915C90.4428 12.4666 90.3178 12.2293 90.3178 11.9794C90.3178 11.6296 90.4303 11.2298 90.6552 10.7801C90.93 10.5052 91.3798 10.2054 92.0044 9.88055C93.2787 9.2309 94.4156 8.90608 95.415 8.90608C96.4395 8.90608 97.3015 9.25589 98.0011 9.95551C98.7257 10.6551 99.088 11.5671 99.088 12.6915V17.3015C99.088 17.6513 99.1505 17.9136 99.2754 18.0885C99.4004 18.2385 99.5378 18.3134 99.6877 18.3134C99.8626 18.3134 100.013 18.2759 100.137 18.201L100.4 18.0885ZM100.133 19.1755C100.333 18.7257 100.433 17.7512 100.433 16.2521V6.20756C100.433 5.65786 100.395 5.30806 100.32 5.15814C100.245 4.98323 100.145 4.87079 100.021 4.82082C99.8956 4.77085 99.7457 4.73337 99.5708 4.70838C99.196 4.60844 98.9336 4.55847 98.7837 4.55847C98.7337 4.55847 98.7088 4.44603 98.7088 4.22115C98.6838 3.97129 98.7088 3.82137 98.7837 3.7714C100.183 3.64647 101.307 3.45907 102.157 3.20921C103.031 2.93436 103.494 2.79693 103.544 2.79693C103.719 2.8469 103.843 2.99682 103.918 3.24668C103.743 3.9463 103.656 4.77085 103.656 5.72033V9.73063C103.656 9.7806 103.656 9.86805 103.656 9.99299C103.681 10.0929 103.731 10.1179 103.806 10.0679C103.906 9.99299 104.043 9.89304 104.218 9.76811C104.418 9.64318 104.631 9.50575 104.855 9.35584C105.355 9.056 105.892 8.90608 106.467 8.90608C107.042 8.90608 107.641 9.04351 108.266 9.31836C108.891 9.56822 109.44 9.93052 109.915 10.4053C110.89 11.3797 111.377 12.629 111.377 14.1532C111.377 16.0272 110.677 17.5264 109.278 18.6507C108.054 19.6752 106.542 20.1874 104.743 20.1874C104.093 20.1874 103.494 20.0999 102.944 19.925C102.394 19.7252 101.932 19.6252 101.557 19.6252C101.182 19.6252 100.908 19.6877 100.733 19.8126C100.683 19.8126 100.57 19.7376 100.395 19.5877C100.22 19.4128 100.133 19.2754 100.133 19.1755ZM105.005 10.7426C104.506 10.7426 104.081 10.9175 103.731 11.2673C103.681 11.3173 103.656 11.3922 103.656 11.4922V17.5638C103.656 17.9886 103.793 18.3509 104.068 18.6507C104.368 18.9506 104.743 19.1005 105.193 19.1005C105.642 19.1005 106.017 18.9881 106.317 18.7632C106.642 18.5133 106.917 18.201 107.142 17.8262C107.591 17.0266 107.816 16.1396 107.816 15.1652C107.816 13.4661 107.541 12.3042 106.992 11.6796C106.442 11.0549 105.78 10.7426 105.005 10.7426ZM116.611 20.1124C115.361 19.9875 114.224 19.925 113.2 19.925C112.2 19.925 111.076 19.9875 109.827 20.1124C109.777 20.0375 109.752 19.8876 109.752 19.6627C109.752 19.4378 109.777 19.2754 109.827 19.1755C110.351 19.1755 110.739 19.1255 110.989 19.0255C111.238 18.9006 111.376 18.8007 111.401 18.7257C111.526 18.4758 111.588 18.1635 111.588 17.7887C111.613 17.4139 111.626 16.9517 111.626 16.402V6.20756C111.626 5.65786 111.588 5.30806 111.513 5.15814C111.438 4.98323 111.326 4.87079 111.176 4.82082C111.051 4.77085 110.914 4.73337 110.764 4.70838C110.414 4.60844 110.152 4.55847 109.977 4.55847C109.927 4.55847 109.889 4.44603 109.864 4.22115C109.864 3.97129 109.902 3.82137 109.977 3.7714C111.651 3.59649 113.112 3.30915 114.362 2.90937C114.587 2.83441 114.712 2.79693 114.737 2.79693C114.911 2.8469 115.036 2.99682 115.111 3.24668C115.061 3.54652 115.011 3.83386 114.961 4.10871C114.886 4.48351 114.849 5.03321 114.849 5.75781V16.402C114.849 17.6513 114.886 18.3759 114.961 18.5758C115.036 18.7507 115.136 18.8756 115.261 18.9506C115.411 19.0005 115.561 19.0505 115.711 19.1005C115.986 19.1505 116.286 19.1755 116.611 19.1755C116.661 19.2754 116.685 19.4378 116.685 19.6627C116.685 19.8876 116.661 20.0375 116.611 20.1124ZM118.009 13.0288C118.059 13.0288 118.221 13.0288 118.496 13.0288C118.796 13.0038 119.121 12.9788 119.471 12.9539C120.27 12.9289 120.845 12.8914 121.195 12.8414C121.42 12.8164 121.532 12.679 121.532 12.4292C121.532 12.1543 121.507 11.867 121.457 11.5671C121.407 11.2673 121.32 11.0049 121.195 10.7801C120.92 10.2304 120.558 9.95551 120.108 9.95551C119.683 9.95551 119.346 10.0804 119.096 10.3303C118.846 10.5552 118.634 10.83 118.459 11.1548C118.159 11.8045 118.009 12.4292 118.009 13.0288ZM123.931 13.7035C122.432 13.8284 120.458 13.9283 118.009 14.0033C118.009 15.5275 118.434 16.6518 119.283 17.3764C119.933 17.9012 120.633 18.1635 121.382 18.1635C122.157 18.1635 122.756 18.0261 123.181 17.7512C123.606 17.4764 123.956 17.2015 124.231 16.9267C124.43 16.9767 124.53 17.1141 124.53 17.339C124.53 17.5638 124.48 17.7512 124.38 17.9012C124.306 18.0261 124.143 18.226 123.893 18.5008C123.643 18.7507 123.331 19.0005 122.956 19.2504C122.007 19.9001 121.095 20.2249 120.22 20.2249C119.346 20.2249 118.596 20.1124 117.971 19.8876C117.347 19.6377 116.797 19.2879 116.322 18.8381C115.298 17.8637 114.786 16.6019 114.786 15.0527C114.786 13.4536 115.335 12.0544 116.435 10.855C117.609 9.58071 118.883 8.94356 120.258 8.94356C121.732 8.94356 122.856 9.38082 123.631 10.2553C124.281 10.955 124.605 11.767 124.605 12.6915C124.605 12.9664 124.543 13.2037 124.418 13.4036C124.293 13.6035 124.131 13.7035 123.931 13.7035Z" fill="#1D1B1E"/>
</svg>
