<svg width="8" height="8" viewBox="0 0 8 8" fill="none" xmlns="http://www.w3.org/2000/svg">
<g clip-path="url(#clip0_293_391)">
<path d="M3.34426 1.09043C3.61249 0.525359 4.38749 0.525358 4.65572 1.09043L5.11929 2.06702C5.2258 2.29141 5.43169 2.44694 5.66986 2.48292L6.70643 2.63952C7.30621 2.73014 7.5457 3.49647 7.1117 3.93632L6.36163 4.69649C6.18929 4.87115 6.11064 5.1228 6.15133 5.36943L6.32839 6.44281C6.43085 7.06388 5.80386 7.5375 5.2674 7.24427L4.34027 6.73749C4.12724 6.62105 3.87274 6.62105 3.65971 6.73749L2.73258 7.24427C2.19612 7.5375 1.56913 7.06388 1.67159 6.44281L1.84865 5.36943C1.88934 5.1228 1.81069 4.87115 1.63835 4.69649L0.888282 3.93632C0.454279 3.49647 0.693766 2.73014 1.29354 2.63952L2.33011 2.48292C2.56829 2.44694 2.77418 2.29141 2.88069 2.06702L3.34426 1.09043Z" stroke="#FBBC05" stroke-width="0.5" stroke-linejoin="round"/>
</g>
<defs>
<clipPath id="clip0_293_391">
<rect width="8" height="8" fill="white"/>
</clipPath>
</defs>
</svg>
